<svg width="16" height="16" viewBox="0 0 16 16" fill="none" xmlns="http://www.w3.org/2000/svg">
<path fill-rule="evenodd" clip-rule="evenodd" d="M15.0044 1.34311C14.4546 1.34311 14.0089 1.79083 14.0089 2.34311V4.17154H12.1885C11.6387 4.17154 11.193 4.61925 11.193 5.17154C11.193 5.72382 11.6387 6.17154 12.1885 6.17154H15.0044C15.5543 6.17154 16 5.72382 16 5.17154V2.34311C16 1.79083 15.5543 1.34311 15.0044 1.34311Z" fill="#656565"/>
<path d="M14.8612 10.6847C15.1257 10.9504 15.2078 11.3533 15.0353 11.6868C14.6685 12.396 14.1889 13.0617 13.5963 13.6569C10.486 16.781 5.44311 16.781 2.33276 13.6569C-0.777588 10.5327 -0.777588 5.46734 2.33276 2.34315C5.44311 -0.781049 10.486 -0.781049 13.5963 2.34315C13.9021 2.65023 14.1777 2.97606 14.4233 3.31696C14.6775 3.66973 14.6126 4.1508 14.306 4.45872C13.8424 4.92445 13.0532 4.78677 12.6451 4.27123C12.5043 4.09344 12.3521 3.92181 12.1884 3.75736C9.85563 1.41421 6.07347 1.41421 3.74071 3.75736C1.40795 6.1005 1.40795 9.8995 3.74071 12.2426C6.07347 14.5858 9.85563 14.5858 12.1884 12.2426C12.5595 11.8699 12.8715 11.4603 13.1246 11.0256C13.4816 10.4123 14.361 10.1823 14.8612 10.6847Z" fill="#656565"/>
</svg>
